<?xml version="1.0" standalone="no"?>
<!DOCTYPE svg PUBLIC "-//W3C//DTD SVG 20010904//EN"
 "http://www.w3.org/TR/2001/REC-SVG-20010904/DTD/svg10.dtd">
<svg version="1.0" xmlns="http://www.w3.org/2000/svg"
 width="225.000000pt" height="225.000000pt" viewBox="0 0 225.000000 225.000000"
 preserveAspectRatio="xMidYMid meet">
<metadata>
Created by potrace 1.11, written by Peter Selinger 2001-2013
</metadata>
<g transform="translate(0.000000,225.000000) scale(0.100000,-0.100000)"
fill="#000000" stroke="none">
<path d="M212 1918 l3 -113 33 -2 32 -3 1 63 0 62 22 -60 c19 -51 26 -60 47
-60 21 0 28 9 47 60 l22 60 0 -61 1 -60 35 -1 35 -1 0 114 0 114 -49 0 -49 0
-19 -62 -19 -63 -20 60 -21 60 -52 3 -52 3 3 -113z"/>
<path d="M578 2014 c-37 -19 -48 -43 -48 -99 0 -40 5 -52 34 -81 29 -29 41
-34 81 -34 61 0 100 24 120 73 22 54 6 111 -38 137 -38 24 -110 26 -149 4z
m132 -39 c0 -8 -7 -15 -15 -15 -16 0 -20 12 -8 23 11 12 23 8 23 -8z m-40 -25
c22 -11 40 -26 40 -33 0 -7 -21 -23 -47 -36 -53 -26 -63 -19 -63 40 0 56 10
60 70 29z"/>
<path d="M780 2027 c0 -4 60 -170 75 -210 6 -14 17 -17 48 -15 l40 3 38 105
c21 58 39 108 39 113 0 4 -18 7 -40 7 -42 0 -40 4 -66 -103 -8 -36 -16 -28
-34 41 l-15 57 -43 3 c-23 2 -42 1 -42 -1z"/>
<path d="M1042 1918 l3 -113 35 0 35 0 3 113 3 112 -41 0 -41 0 3 -112z"/>
<path d="M1160 1916 l0 -114 80 -1 80 -1 0 35 c0 35 0 35 -45 35 -25 0 -45 5
-45 10 0 6 18 10 41 10 38 0 40 1 37 28 -3 23 -7 27 -37 28 -19 0 -36 5 -39
12 -2 8 10 12 36 12 29 0 41 5 44 18 10 36 -2 42 -78 42 l-74 0 0 -114z"/>
<path d="M1360 1920 l0 -110 38 0 c35 0 37 2 37 33 0 29 3 32 33 35 28 3 32 7
32 32 0 25 -4 29 -32 32 -45 4 -42 22 5 26 34 3 37 6 37 33 l0 29 -75 0 -75 0
0 -110z"/>
<path d="M1550 1920 l0 -110 75 0 75 0 0 30 c0 28 -2 30 -40 30 l-40 0 0 80 0
80 -35 0 -35 0 0 -110z"/>
<path d="M1727 2023 c-4 -3 -7 -53 -7 -110 l0 -103 40 0 40 0 0 110 0 110 -33
0 c-19 0 -37 -3 -40 -7z"/>
<path d="M1859 1968 l30 -52 -30 -53 -30 -53 33 0 c27 0 37 6 53 32 l18 32 16
-32 c12 -27 20 -32 48 -32 18 0 33 2 33 5 0 3 -11 23 -25 45 -31 49 -31 54 0
109 14 23 25 45 25 47 0 2 -14 4 -30 4 -23 0 -35 -7 -49 -31 l-19 -31 -18 31
c-15 25 -25 31 -51 31 l-33 0 29 -52z"/>
<path d="M945 1595 c-208 -45 -377 -172 -468 -351 -57 -112 -72 -186 -72 -354
0 -135 3 -165 23 -230 77 -244 258 -419 498 -480 109 -28 291 -28 400 1 193
50 361 183 443 349 66 136 84 226 78 394 -5 156 -20 216 -83 337 -66 125 -205
248 -337 297 -133 50 -347 67 -482 37z m510 -320 c48 -47 25 -135 -39 -151
-40 -10 -94 20 -104 58 -25 92 78 159 143 93z m-363 -123 c358 -186 380 -200
393 -252 13 -54 -24 -84 -265 -213 -259 -139 -289 -147 -340 -90 -37 41 -43
88 -38 333 4 210 10 240 57 265 44 24 78 17 193 -43z"/>
</g>
</svg>
